<svg width="32" height="32" viewBox="0 0 32 32" fill="none" xmlns="http://www.w3.org/2000/svg">
<path d="M26.6654 15.9998V7.66517C26.6654 7.55992 26.6448 7.45569 26.6045 7.35846C26.5642 7.26122 26.5052 7.17288 26.4307 7.0985L22.2334 2.90117C22.0835 2.7511 21.8801 2.66669 21.668 2.6665H6.13203C5.91986 2.6665 5.71637 2.75079 5.56635 2.90082C5.41632 3.05085 5.33203 3.25433 5.33203 3.4665V28.5332C5.33203 28.7453 5.41632 28.9488 5.56635 29.0989C5.71637 29.2489 5.91986 29.3332 6.13203 29.3332H14.6654M10.6654 13.3332H21.332M10.6654 7.99984H15.9987M10.6654 18.6665H14.6654M23.9374 22.5865L25.2707 21.2532C25.4094 21.1141 25.5742 21.0037 25.7556 20.9284C25.9371 20.8532 26.1316 20.8144 26.328 20.8144C26.5245 20.8144 26.719 20.8532 26.9004 20.9284C27.0818 21.0037 27.2466 21.1141 27.3854 21.2532C27.5242 21.3919 27.6344 21.5566 27.7096 21.7379C27.7848 21.9192 27.8235 22.1136 27.8235 22.3098C27.8235 22.5061 27.7848 22.7005 27.7096 22.8818C27.6344 23.0631 27.5242 23.2278 27.3854 23.3665L26.052 24.6998L23.9374 22.5852L19.9494 26.5732C19.75 26.7732 19.6192 27.0314 19.576 27.3105L19.2507 29.3865L21.3267 29.0625C21.6058 29.0193 21.864 28.8886 22.064 28.6892L26.0507 24.6998" stroke="#E1F8F8" stroke-width="1.5" stroke-linecap="round" stroke-linejoin="round"/>
<path d="M21.332 2.6665V7.19984C21.332 7.41201 21.4163 7.61549 21.5663 7.76552C21.7164 7.91555 21.9199 7.99984 22.132 7.99984H26.6654" stroke="#E1F8F8" stroke-width="1.5" stroke-linecap="round" stroke-linejoin="round"/>
</svg>
